<svg width="203" height="84" viewBox="0 0 203 84" fill="none" xmlns="http://www.w3.org/2000/svg">
<g filter="url(#filter0_d_22618_241)">
<path fill-rule="evenodd" clip-rule="evenodd" d="M22 22C22 16.4772 26.4772 12 32 12H171C176.523 12 181 16.4772 181 22V42C181 47.5228 176.523 52 171 52H32C26.4772 52 22 47.5228 22 42V22Z" fill="white"/>
</g>
<path d="M52.1992 32.7129H50.5469V36H49.0645V27.4688H52.0645C53.0488 27.4688 53.8086 27.6895 54.3438 28.1309C54.8789 28.5723 55.1465 29.2109 55.1465 30.0469C55.1465 30.6172 55.0078 31.0957 54.7305 31.4824C54.457 31.8652 54.0742 32.1602 53.582 32.3672L55.498 35.9238V36H53.9102L52.1992 32.7129ZM50.5469 31.5234H52.0703C52.5703 31.5234 52.9609 31.3984 53.2422 31.1484C53.5234 30.8945 53.6641 30.5488 53.6641 30.1113C53.6641 29.6543 53.5332 29.3008 53.2715 29.0508C53.0137 28.8008 52.627 28.6719 52.1113 28.6641H50.5469V31.5234ZM59.207 36.1172C58.3047 36.1172 57.5723 35.834 57.0098 35.2676C56.4512 34.6973 56.1719 33.9395 56.1719 32.9941V32.8184C56.1719 32.1855 56.293 31.6211 56.5352 31.125C56.7812 30.625 57.125 30.2363 57.5664 29.959C58.0078 29.6816 58.5 29.543 59.043 29.543C59.9062 29.543 60.5723 29.8184 61.041 30.3691C61.5137 30.9199 61.75 31.6992 61.75 32.707V33.2812H57.6074C57.6504 33.8047 57.8242 34.2188 58.1289 34.5234C58.4375 34.8281 58.8242 34.9805 59.2891 34.9805C59.9414 34.9805 60.4727 34.7168 60.8828 34.1895L61.6504 34.9219C61.3965 35.3008 61.0566 35.5957 60.6309 35.8066C60.209 36.0137 59.7344 36.1172 59.207 36.1172ZM59.0371 30.6855C58.6465 30.6855 58.3301 30.8223 58.0879 31.0957C57.8496 31.3691 57.6973 31.75 57.6309 32.2383H60.3438V32.1328C60.3125 31.6562 60.1855 31.2969 59.9629 31.0547C59.7402 30.8086 59.4316 30.6855 59.0371 30.6855ZM64.1992 29.6602L64.2402 30.3223C64.6855 29.8027 65.2949 29.543 66.0684 29.543C66.916 29.543 67.4961 29.8672 67.8086 30.5156C68.2695 29.8672 68.918 29.543 69.7539 29.543C70.4531 29.543 70.9727 29.7363 71.3125 30.123C71.6562 30.5098 71.832 31.0801 71.8398 31.834V36H70.416V31.875C70.416 31.4727 70.3281 31.1777 70.1523 30.9902C69.9766 30.8027 69.6855 30.709 69.2793 30.709C68.9551 30.709 68.6895 30.7969 68.4824 30.9727C68.2793 31.1445 68.1367 31.3711 68.0547 31.6523L68.0605 36H66.6367V31.8281C66.6172 31.082 66.2363 30.709 65.4941 30.709C64.9238 30.709 64.5195 30.9414 64.2812 31.4062V36H62.8574V29.6602H64.1992ZM73.0352 32.7715C73.0352 32.1504 73.1582 31.5918 73.4043 31.0957C73.6504 30.5957 73.9961 30.2129 74.4414 29.9473C74.8867 29.6777 75.3984 29.543 75.9766 29.543C76.832 29.543 77.5254 29.8184 78.0566 30.3691C78.5918 30.9199 78.8809 31.6504 78.9238 32.5605L78.9297 32.8945C78.9297 33.5195 78.8086 34.0781 78.5664 34.5703C78.3281 35.0625 77.9844 35.4434 77.5352 35.7129C77.0898 35.9824 76.5742 36.1172 75.9883 36.1172C75.0938 36.1172 74.377 35.8203 73.8379 35.2266C73.3027 34.6289 73.0352 33.834 73.0352 32.8418V32.7715ZM74.459 32.8945C74.459 33.5469 74.5938 34.0586 74.8633 34.4297C75.1328 34.7969 75.5078 34.9805 75.9883 34.9805C76.4688 34.9805 76.8418 34.793 77.1074 34.418C77.377 34.043 77.5117 33.4941 77.5117 32.7715C77.5117 32.1309 77.373 31.623 77.0957 31.248C76.8223 30.873 76.4492 30.6855 75.9766 30.6855C75.5117 30.6855 75.1426 30.8711 74.8691 31.2422C74.5957 31.6094 74.459 32.1602 74.459 32.8945ZM82.2754 34.1953L83.6172 29.6602H85.0879L82.8906 36H81.6543L79.4395 29.6602H80.916L82.2754 34.1953ZM88.6914 36.1172C87.7891 36.1172 87.0566 35.834 86.4941 35.2676C85.9355 34.6973 85.6562 33.9395 85.6562 32.9941V32.8184C85.6562 32.1855 85.7773 31.6211 86.0195 31.125C86.2656 30.625 86.6094 30.2363 87.0508 29.959C87.4922 29.6816 87.9844 29.543 88.5273 29.543C89.3906 29.543 90.0566 29.8184 90.5254 30.3691C90.998 30.9199 91.2344 31.6992 91.2344 32.707V33.2812H87.0918C87.1348 33.8047 87.3086 34.2188 87.6133 34.5234C87.9219 34.8281 88.3086 34.9805 88.7734 34.9805C89.4258 34.9805 89.957 34.7168 90.3672 34.1895L91.1348 34.9219C90.8809 35.3008 90.541 35.5957 90.1152 35.8066C89.6934 36.0137 89.2188 36.1172 88.6914 36.1172ZM88.5215 30.6855C88.1309 30.6855 87.8145 30.8223 87.5723 31.0957C87.334 31.3691 87.1816 31.75 87.1152 32.2383H89.8281V32.1328C89.7969 31.6562 89.6699 31.2969 89.4473 31.0547C89.2246 30.8086 88.916 30.6855 88.5215 30.6855ZM95.834 36V30.7148H94.8672V29.6602H95.834V29.0801C95.834 28.377 96.0293 27.834 96.4199 27.4512C96.8105 27.0684 97.3574 26.877 98.0605 26.877C98.3105 26.877 98.5762 26.9121 98.8574 26.9824L98.8223 28.0957C98.666 28.0645 98.4844 28.0488 98.2773 28.0488C97.5977 28.0488 97.2578 28.3984 97.2578 29.0977V29.6602H98.5469V30.7148H97.2578V36H95.834ZM102.906 30.9609C102.719 30.9297 102.525 30.9141 102.326 30.9141C101.674 30.9141 101.234 31.1641 101.008 31.6641V36H99.584V29.6602H100.943L100.979 30.3691C101.322 29.8184 101.799 29.543 102.408 29.543C102.611 29.543 102.779 29.5703 102.912 29.625L102.906 30.9609ZM103.328 32.7715C103.328 32.1504 103.451 31.5918 103.697 31.0957C103.943 30.5957 104.289 30.2129 104.734 29.9473C105.18 29.6777 105.691 29.543 106.27 29.543C107.125 29.543 107.818 29.8184 108.35 30.3691C108.885 30.9199 109.174 31.6504 109.217 32.5605L109.223 32.8945C109.223 33.5195 109.102 34.0781 108.859 34.5703C108.621 35.0625 108.277 35.4434 107.828 35.7129C107.383 35.9824 106.867 36.1172 106.281 36.1172C105.387 36.1172 104.67 35.8203 104.131 35.2266C103.596 34.6289 103.328 33.834 103.328 32.8418V32.7715ZM104.752 32.8945C104.752 33.5469 104.887 34.0586 105.156 34.4297C105.426 34.7969 105.801 34.9805 106.281 34.9805C106.762 34.9805 107.135 34.793 107.4 34.418C107.67 34.043 107.805 33.4941 107.805 32.7715C107.805 32.1309 107.666 31.623 107.389 31.248C107.115 30.873 106.742 30.6855 106.27 30.6855C105.805 30.6855 105.436 30.8711 105.162 31.2422C104.889 31.6094 104.752 32.1602 104.752 32.8945ZM111.766 29.6602L111.807 30.3223C112.252 29.8027 112.861 29.543 113.635 29.543C114.482 29.543 115.062 29.8672 115.375 30.5156C115.836 29.8672 116.484 29.543 117.32 29.543C118.02 29.543 118.539 29.7363 118.879 30.123C119.223 30.5098 119.398 31.0801 119.406 31.834V36H117.982V31.875C117.982 31.4727 117.895 31.1777 117.719 30.9902C117.543 30.8027 117.252 30.709 116.846 30.709C116.521 30.709 116.256 30.7969 116.049 30.9727C115.846 31.1445 115.703 31.3711 115.621 31.6523L115.627 36H114.203V31.8281C114.184 31.082 113.803 30.709 113.061 30.709C112.49 30.709 112.086 30.9414 111.848 31.4062V36H110.424V29.6602H111.766ZM127.41 34.2773C127.41 34.0234 127.305 33.8301 127.094 33.6973C126.887 33.5645 126.541 33.4473 126.057 33.3457C125.572 33.2441 125.168 33.1152 124.844 32.959C124.133 32.6152 123.777 32.1172 123.777 31.4648C123.777 30.918 124.008 30.4609 124.469 30.0938C124.93 29.7266 125.516 29.543 126.227 29.543C126.984 29.543 127.596 29.7305 128.061 30.1055C128.529 30.4805 128.764 30.9668 128.764 31.5645H127.34C127.34 31.291 127.238 31.0645 127.035 30.8848C126.832 30.7012 126.562 30.6094 126.227 30.6094C125.914 30.6094 125.658 30.6816 125.459 30.8262C125.264 30.9707 125.166 31.1641 125.166 31.4062C125.166 31.625 125.258 31.7949 125.441 31.916C125.625 32.0371 125.996 32.1602 126.555 32.2852C127.113 32.4062 127.551 32.5527 127.867 32.7246C128.188 32.8926 128.424 33.0957 128.576 33.334C128.732 33.5723 128.811 33.8613 128.811 34.2012C128.811 34.7715 128.574 35.2344 128.102 35.5898C127.629 35.9414 127.01 36.1172 126.244 36.1172C125.725 36.1172 125.262 36.0234 124.855 35.8359C124.449 35.6484 124.133 35.3906 123.906 35.0625C123.68 34.7344 123.566 34.3809 123.566 34.002H124.949C124.969 34.3379 125.096 34.5977 125.33 34.7812C125.564 34.9609 125.875 35.0508 126.262 35.0508C126.637 35.0508 126.922 34.9805 127.117 34.8398C127.312 34.6953 127.41 34.5078 127.41 34.2773ZM133.844 36C133.781 35.8789 133.727 35.6816 133.68 35.4082C133.227 35.8809 132.672 36.1172 132.016 36.1172C131.379 36.1172 130.859 35.9355 130.457 35.5723C130.055 35.209 129.854 34.7598 129.854 34.2246C129.854 33.5488 130.104 33.0312 130.604 32.6719C131.107 32.3086 131.826 32.127 132.76 32.127H133.633V31.7109C133.633 31.3828 133.541 31.1211 133.357 30.9258C133.174 30.7266 132.895 30.627 132.52 30.627C132.195 30.627 131.93 30.709 131.723 30.873C131.516 31.0332 131.412 31.2383 131.412 31.4883H129.988C129.988 31.1406 130.104 30.8164 130.334 30.5156C130.564 30.2109 130.877 29.9727 131.271 29.8008C131.67 29.6289 132.113 29.543 132.602 29.543C133.344 29.543 133.936 29.7305 134.377 30.1055C134.818 30.4766 135.045 31 135.057 31.6758V34.5352C135.057 35.1055 135.137 35.5605 135.297 35.9004V36H133.844ZM132.279 34.9746C132.561 34.9746 132.824 34.9062 133.07 34.7695C133.32 34.6328 133.508 34.4492 133.633 34.2188V33.0234H132.865C132.338 33.0234 131.941 33.1152 131.676 33.2988C131.41 33.4824 131.277 33.7422 131.277 34.0781C131.277 34.3516 131.367 34.5703 131.547 34.7344C131.73 34.8945 131.975 34.9746 132.279 34.9746ZM138.689 34.1953L140.031 29.6602H141.502L139.305 36H138.068L135.854 29.6602H137.33L138.689 34.1953ZM145.105 36.1172C144.203 36.1172 143.471 35.834 142.908 35.2676C142.35 34.6973 142.07 33.9395 142.07 32.9941V32.8184C142.07 32.1855 142.191 31.6211 142.434 31.125C142.68 30.625 143.023 30.2363 143.465 29.959C143.906 29.6816 144.398 29.543 144.941 29.543C145.805 29.543 146.471 29.8184 146.939 30.3691C147.412 30.9199 147.648 31.6992 147.648 32.707V33.2812H143.506C143.549 33.8047 143.723 34.2188 144.027 34.5234C144.336 34.8281 144.723 34.9805 145.188 34.9805C145.84 34.9805 146.371 34.7168 146.781 34.1895L147.549 34.9219C147.295 35.3008 146.955 35.5957 146.529 35.8066C146.107 36.0137 145.633 36.1172 145.105 36.1172ZM144.936 30.6855C144.545 30.6855 144.229 30.8223 143.986 31.0957C143.748 31.3691 143.596 31.75 143.529 32.2383H146.242V32.1328C146.211 31.6562 146.084 31.2969 145.861 31.0547C145.639 30.8086 145.33 30.6855 144.936 30.6855ZM148.492 32.7832C148.492 31.8066 148.719 31.0234 149.172 30.4336C149.625 29.8398 150.232 29.543 150.994 29.543C151.666 29.543 152.209 29.7773 152.623 30.2461V27H154.047V36H152.758L152.688 35.3438C152.262 35.8594 151.693 36.1172 150.982 36.1172C150.24 36.1172 149.639 35.8184 149.178 35.2207C148.721 34.623 148.492 33.8105 148.492 32.7832ZM149.916 32.9062C149.916 33.5508 150.039 34.0547 150.285 34.418C150.535 34.7773 150.889 34.957 151.346 34.957C151.928 34.957 152.354 34.6973 152.623 34.1777V31.4707C152.361 30.9629 151.939 30.709 151.357 30.709C150.896 30.709 150.541 30.8926 150.291 31.2598C150.041 31.623 149.916 32.1719 149.916 32.9062Z" fill="black"/>
<defs>
<filter id="filter0_d_22618_241" x="0" y="0" width="203" height="84" filterUnits="userSpaceOnUse" color-interpolation-filters="sRGB">
<feFlood flood-opacity="0" result="BackgroundImageFix"/>
<feColorMatrix in="SourceAlpha" type="matrix" values="0 0 0 0 0 0 0 0 0 0 0 0 0 0 0 0 0 0 127 0" result="hardAlpha"/>
<feOffset dy="10"/>
<feGaussianBlur stdDeviation="11"/>
<feColorMatrix type="matrix" values="0 0 0 0 0.231373 0 0 0 0 0.290196 0 0 0 0 0.454902 0 0 0 0.1 0"/>
<feBlend mode="normal" in2="BackgroundImageFix" result="effect1_dropShadow_22618_241"/>
<feBlend mode="normal" in="SourceGraphic" in2="effect1_dropShadow_22618_241" result="shape"/>
</filter>
</defs>
</svg>
